# xmcd CD Database Entry
#
# Track frame offsets:
# 150
# 20305
# 42372
# 57811
# 74783
# 95611
# 110228
# 129864
# 148421
# 168876
# 188356
#
# Disc length: 2727 seconds
#
# Revision: 3
# Processed by: cddbd v1.4PL0 Copyright (c) Steve Scherf et al.
# Submitted via: tcd 2.0b
#
DISCID=9b0aa50b
DTITLE=Luca Carboni - Luca
DYEAR=1900
DGENRE=
TTITLE0=Mi ami davvero
TTITLE1=La nostra storia
TTITLE2=Chiudi gli occhi
TTITLE3=Una rosa per te
TTITLE4=Parole
TTITLE5=Autoritratto
TTITLE6=L'amore non lo sa
TTITLE7=Quante cose
TTITLE8=Voglia di piangere
TTITLE9=I problemi della gente
TTITLE10=Stellina (dei cantautori)
EXTD=
EXTT0=
EXTT1=
EXTT2=
EXTT3=
EXTT4=
EXTT5=
EXTT6=
EXTT7=
EXTT8=
EXTT9=
EXTT10=
PLAYORDER=
